<svg xmlns="http://www.w3.org/2000/svg" viewBox="0 0 32 32" width="32" height="32">
  <defs>
    <linearGradient id="bg" x1="0%" y1="0%" x2="100%" y2="100%">
      <stop offset="0%" style="stop-color:#06b6d4"/>
      <stop offset="100%" style="stop-color:#3b82f6"/>
    </linearGradient>
  </defs>
  <rect width="32" height="32" rx="6" fill="url(#bg)"/>
  <g transform="translate(6, 6)" fill="none" stroke="white" stroke-width="1.5" stroke-linecap="round" stroke-linejoin="round">
    <path d="M15.428 11.428a1.5 1.5 0 00-.767-.41l-1.79-.358a4.5 4.5 0 00-2.895.388l-.239.119a4.5 4.5 0 01-2.895.388l-1.503-.301a1.5 1.5 0 00-1.354.41M6 3h8l-.75.75v3.879a1.5 1.5 0 00.44 1.06l3.75 3.75c.945.945.275 2.561-1.061 2.561H3.621c-1.336 0-2.006-1.616-1.06-2.56l3.75-3.75A1.5 1.5 0 006.75 7.629V3.75L6 3z"/>
  </g>
</svg>
